<svg xmlns="http://www.w3.org/2000/svg" viewBox="0 0 100 100" width="100" height="100">
  <defs>
    <linearGradient id="diamondGradient" x1="0%" y1="0%" x2="100%" y2="100%">
      <stop offset="0%" style="stop-color:#e0f2fe;stop-opacity:1" />
      <stop offset="50%" style="stop-color:#0ea5e9;stop-opacity:1" />
      <stop offset="100%" style="stop-color:#0284c7;stop-opacity:1" />
    </linearGradient>
    <linearGradient id="sparkleGradient" x1="0%" y1="0%" x2="100%" y2="100%">
      <stop offset="0%" style="stop-color:#ffffff;stop-opacity:1" />
      <stop offset="100%" style="stop-color:#f0f9ff;stop-opacity:0.8" />
    </linearGradient>
  </defs>
  
  <!-- Background circle -->
  <circle cx="50" cy="50" r="48" fill="#1e40af" stroke="#1e3a8a" stroke-width="2"/>
  
  <!-- Diamond shape -->
  <g transform="translate(50, 50)">
    <!-- Main diamond body -->
    <polygon points="0,-20 12,-8 12,8 0,20 -12,8 -12,-8" 
             fill="url(#diamondGradient)" 
             stroke="#0369a1" 
             stroke-width="1"/>
    
    <!-- Diamond top facet -->
    <polygon points="0,-20 8,-12 0,-8 -8,-12" 
             fill="url(#sparkleGradient)" 
             opacity="0.9"/>
    
    <!-- Diamond left facet -->
    <polygon points="-12,-8 -8,-12 0,-8 -8,0" 
             fill="url(#sparkleGradient)" 
             opacity="0.6"/>
    
    <!-- Diamond right facet -->
    <polygon points="12,-8 8,-12 0,-8 8,0" 
             fill="url(#sparkleGradient)" 
             opacity="0.6"/>
    
    <!-- Sparkle effects -->
    <g fill="white" opacity="0.8">
      <!-- Main sparkles -->
      <circle cx="-15" cy="-15" r="1.5"/>
      <circle cx="15" cy="-15" r="1"/>
      <circle cx="-18" cy="10" r="1"/>
      <circle cx="18" cy="12" r="1.2"/>
      
      <!-- Small sparkles -->
      <circle cx="-8" cy="-25" r="0.8"/>
      <circle cx="10" cy="-28" r="0.6"/>
      <circle cx="-20" cy="-5" r="0.7"/>
      <circle cx="22" cy="0" r="0.9"/>
    </g>
  </g>
</svg> 