<svg xmlns="http://www.w3.org/2000/svg" viewBox="0 0 1920 1080" preserveAspectRatio="xMidYMid slice">
  <defs>
    <!-- Main gradient background -->
    <linearGradient id="mainGradient" x1="0%" y1="0%" x2="100%" y2="100%">
      <stop offset="0%" style="stop-color:#0f172a;stop-opacity:1" />
      <stop offset="25%" style="stop-color:#1e293b;stop-opacity:1" />
      <stop offset="75%" style="stop-color:#334155;stop-opacity:1" />
      <stop offset="100%" style="stop-color:#475569;stop-opacity:1" />
    </linearGradient>
    
    <!-- Overlay gradient -->
    <linearGradient id="overlayGradient" x1="0%" y1="0%" x2="100%" y2="100%">
      <stop offset="0%" style="stop-color:#0ea5e9;stop-opacity:0.1" />
      <stop offset="50%" style="stop-color:#3b82f6;stop-opacity:0.05" />
      <stop offset="100%" style="stop-color:#1e40af;stop-opacity:0.1" />
    </linearGradient>
    
    <!-- Diamond sparkle gradient -->
    <radialGradient id="sparkleGradient" cx="50%" cy="50%" r="50%">
      <stop offset="0%" style="stop-color:#ffffff;stop-opacity:0.8" />
      <stop offset="70%" style="stop-color:#f0f9ff;stop-opacity:0.3" />
      <stop offset="100%" style="stop-color:#e0f2fe;stop-opacity:0" />
    </radialGradient>
    
    <!-- Geometric pattern -->
    <pattern id="geometricPattern" x="0" y="0" width="100" height="100" patternUnits="userSpaceOnUse">
      <polygon points="50,5 65,25 85,25 70,40 75,60 50,50 25,60 30,40 15,25 35,25" 
               fill="url(#sparkleGradient)" 
               opacity="0.1"/>
    </pattern>
    
    <!-- Floating diamond pattern -->
    <pattern id="diamondPattern" x="0" y="0" width="200" height="200" patternUnits="userSpaceOnUse">
      <!-- Small diamonds -->
      <polygon points="100,20 110,35 100,50 90,35" fill="#ffffff" opacity="0.05"/>
      <polygon points="30,80 40,95 30,110 20,95" fill="#ffffff" opacity="0.03"/>
      <polygon points="170,120 180,135 170,150 160,135" fill="#ffffff" opacity="0.04"/>
      <polygon points="50,160 60,175 50,190 40,175" fill="#ffffff" opacity="0.02"/>
      
      <!-- Sparkle dots -->
      <circle cx="140" cy="40" r="1.5" fill="#ffffff" opacity="0.3"/>
      <circle cx="60" cy="30" r="1" fill="#ffffff" opacity="0.4"/>
      <circle cx="180" cy="70" r="1.2" fill="#ffffff" opacity="0.2"/>
      <circle cx="20" cy="140" r="0.8" fill="#ffffff" opacity="0.3"/>
      <circle cx="120" cy="180" r="1.1" fill="#ffffff" opacity="0.25"/>
    </pattern>
  </defs>
  
  <!-- Main background -->
  <rect width="1920" height="1080" fill="url(#mainGradient)"/>
  
  <!-- Overlay gradient -->
  <rect width="1920" height="1080" fill="url(#overlayGradient)"/>
  
  <!-- Geometric pattern overlay -->
  <rect width="1920" height="1080" fill="url(#geometricPattern)" opacity="0.15"/>
  
  <!-- Floating diamond pattern -->
  <rect width="1920" height="1080" fill="url(#diamondPattern)" opacity="0.6"/>
  
  <!-- Large decorative elements -->
  <g opacity="0.1">
    <!-- Top left large diamond -->
    <g transform="translate(200, 150) rotate(15)">
      <polygon points="0,-30 20,-10 20,10 0,30 -20,10 -20,-10" 
               fill="url(#sparkleGradient)" 
               opacity="0.3"/>
    </g>
    
    <!-- Top right large diamond -->
    <g transform="translate(1650, 200) rotate(-25)">
      <polygon points="0,-25 15,-8 15,8 0,25 -15,8 -15,-8" 
               fill="url(#sparkleGradient)" 
               opacity="0.25"/>
    </g>
    
    <!-- Bottom left large diamond -->
    <g transform="translate(300, 850) rotate(45)">
      <polygon points="0,-20 12,-6 12,6 0,20 -12,6 -12,-6" 
               fill="url(#sparkleGradient)" 
               opacity="0.2"/>
    </g>
    
    <!-- Bottom right large diamond -->
    <g transform="translate(1550, 900) rotate(-35)">
      <polygon points="0,-35 22,-12 22,12 0,35 -22,12 -22,-12" 
               fill="url(#sparkleGradient)" 
               opacity="0.35"/>
    </g>
  </g>
  
  <!-- Subtle light rays -->
  <g opacity="0.05">
    <path d="M 0 0 L 400 800 L 450 750 L 50 -50 Z" fill="url(#sparkleGradient)"/>
    <path d="M 1920 0 L 1520 800 L 1470 750 L 1870 -50 Z" fill="url(#sparkleGradient)"/>
    <path d="M 960 0 L 760 1080 L 810 1080 L 1010 0 Z" fill="url(#sparkleGradient)"/>
  </g>
  
  <!-- Subtle vignette effect -->
  <defs>
    <radialGradient id="vignette" cx="50%" cy="50%" r="70%">
      <stop offset="0%" style="stop-color:#000000;stop-opacity:0" />
      <stop offset="100%" style="stop-color:#000000;stop-opacity:0.3" />
    </radialGradient>
  </defs>
  <rect width="1920" height="1080" fill="url(#vignette)"/>
</svg> 